<svg width="34" height="34" viewBox="0 0 34 38" fill="none" xmlns="http://www.w3.org/2000/svg">
<g filter="url(#filter0_dd_10_12)">
<path d="M18 2.66699C10.657 2.69399 4.71399 8.65299 4.71399 16C4.71399 21.599 8.16599 26.393 13.057 28.368L13.146 28.4C13.013 27.347 12.919 25.733 13.186 24.573L14.746 17.946C14.746 17.946 14.346 17.146 14.346 15.973C14.346 14.12 15.426 12.746 16.773 12.746C17.906 12.746 18.466 13.599 18.466 14.613C18.466 15.76 17.733 17.466 17.346 19.053C17.026 20.386 18.013 21.466 19.333 21.466C21.706 21.466 23.52 18.973 23.52 15.373C23.52 12.173 21.227 9.95999 17.947 9.95999C17.871 9.95599 17.783 9.95399 17.694 9.95399C14.505 9.95399 11.921 12.539 11.921 15.727C11.921 15.729 11.921 15.731 11.921 15.733C11.921 16.88 12.361 18.106 12.908 18.773C13.015 18.906 13.028 19.026 12.988 19.16L12.615 20.667C12.562 20.907 12.415 20.974 12.175 20.854C10.495 20.067 9.45499 17.654 9.45499 15.681C9.45499 11.481 12.522 7.62799 18.282 7.62799C22.895 7.62799 26.509 10.908 26.509 15.321C26.509 19.921 23.602 23.614 19.576 23.614C18.243 23.614 16.963 22.907 16.536 22.081L15.696 25.241C15.265 26.578 14.704 27.739 14.008 28.804L14.042 28.748C15.212 29.12 16.558 29.335 17.953 29.335C25.317 29.335 31.286 23.365 31.286 16.002C31.286 8.65499 25.344 2.69599 18.004 2.66899H18.001L18 2.66699Z" fill="white"/>
</g>
<defs>
<filter id="filter0_dd_10_12" x="-2" y="0" width="40" height="40" filterUnits="userSpaceOnUse" color-interpolation-filters="sRGB">
<feFlood flood-opacity="0" result="BackgroundImageFix"/>
<feColorMatrix in="SourceAlpha" type="matrix" values="0 0 0 0 0 0 0 0 0 0 0 0 0 0 0 0 0 0 127 0" result="hardAlpha"/>
<feOffset dy="4"/>
<feGaussianBlur stdDeviation="2"/>
<feComposite in2="hardAlpha" operator="out"/>
<feColorMatrix type="matrix" values="0 0 0 0 0 0 0 0 0 0 0 0 0 0 0 0 0 0 0.25 0"/>
<feBlend mode="normal" in2="BackgroundImageFix" result="effect1_dropShadow_10_12"/>
<feColorMatrix in="SourceAlpha" type="matrix" values="0 0 0 0 0 0 0 0 0 0 0 0 0 0 0 0 0 0 127 0" result="hardAlpha"/>
<feOffset dy="4"/>
<feGaussianBlur stdDeviation="2"/>
<feComposite in2="hardAlpha" operator="out"/>
<feColorMatrix type="matrix" values="0 0 0 0 0 0 0 0 0 0 0 0 0 0 0 0 0 0 0.25 0"/>
<feBlend mode="normal" in2="effect1_dropShadow_10_12" result="effect2_dropShadow_10_12"/>
<feBlend mode="normal" in="SourceGraphic" in2="effect2_dropShadow_10_12" result="shape"/>
</filter>
</defs>
</svg>
